<svg viewBox="0 0 100 100" xmlns="http://www.w3.org/2000/svg">
  <defs>
    <linearGradient id="grad-se" x1="0%" y1="0%" x2="100%" y2="100%">
      <stop offset="0%" style="stop-color: #00F0FF;" />
      <stop offset="100%" style="stop-color: #0066FF;" />
    </linearGradient>
  </defs>
  
  <!-- Outer circle -->
  <circle cx="50" cy="50" r="45" fill="url(#grad-se)" fill-opacity="0.1"/>
  <circle cx="50" cy="50" r="45" fill="none" stroke="url(#grad-se)" stroke-width="4"/>

  <!-- Brain icon shape -->
  <path d="M 50,25 
           C 35,25 30,40 35,50 
             25,50 25,65 35,70
             35,80 45,80 50,70
             
             M 50,25
             C 65,25 70,40 65,50
             75,50 75,65 65,70
             65,80 55,80 50,70"
        fill="none" stroke="white" stroke-width="6" stroke-linecap="round" stroke-linejoin="round"/>
        
  <!-- Checkmark inside brain -->
  <path d="M 40 50 L 48 58 L 62 42" fill="none" stroke="white" stroke-width="7" stroke-linecap="round" stroke-linejoin="round"/>
  
  <path d="M 40 50 L 48 58 L 62 42" fill="none" stroke="url(#grad-se)" stroke-width="5" stroke-linecap="round" stroke-linejoin="round"/>
</svg>